<mxfile host="app.diagrams.net" modified="2023-11-07T13:01:24.748Z" agent="Mozilla/5.0 (Windows NT 10.0; Win64; x64) AppleWebKit/537.36 (KHTML, like Gecko) Chrome/119.0.0.0 Safari/537.36" etag="-_Jo9pb26PzGSiuM11TV" version="22.0.8" type="device">
  <diagram name="Page-1" id="qy17XR3RBXUXcXJH_nj1">
    <mxGraphModel dx="683" dy="372" grid="1" gridSize="10" guides="1" tooltips="1" connect="1" arrows="1" fold="1" page="1" pageScale="1" pageWidth="827" pageHeight="1169" math="0" shadow="0">
      <root>
        <mxCell id="0" />
        <mxCell id="1" parent="0" />
        <mxCell id="A40msvk8LjU9jSHHNNsG-1" value="" style="rounded=0;whiteSpace=wrap;html=1;fillColor=none;" vertex="1" parent="1">
          <mxGeometry x="40" y="40" width="240" height="650" as="geometry" />
        </mxCell>
        <mxCell id="A40msvk8LjU9jSHHNNsG-2" value="" style="rounded=0;whiteSpace=wrap;html=1;fillColor=none;" vertex="1" parent="1">
          <mxGeometry x="50" y="600" width="220" height="80" as="geometry" />
        </mxCell>
        <mxCell id="A40msvk8LjU9jSHHNNsG-3" value="" style="endArrow=none;html=1;rounded=0;" edge="1" parent="1">
          <mxGeometry width="50" height="50" relative="1" as="geometry">
            <mxPoint x="240" y="659" as="sourcePoint" />
            <mxPoint x="80.5" y="659.31" as="targetPoint" />
          </mxGeometry>
        </mxCell>
        <mxCell id="A40msvk8LjU9jSHHNNsG-4" value="" style="ellipse;whiteSpace=wrap;html=1;aspect=fixed;fillColor=#808080;" vertex="1" parent="1">
          <mxGeometry x="59.5" y="639.31" width="20" height="20" as="geometry" />
        </mxCell>
        <mxCell id="A40msvk8LjU9jSHHNNsG-5" value="My Directions" style="text;html=1;strokeColor=none;fillColor=none;align=left;verticalAlign=middle;whiteSpace=wrap;rounded=0;spacingLeft=4;dashed=1;" vertex="1" parent="1">
          <mxGeometry x="50" y="600" width="220" height="30" as="geometry" />
        </mxCell>
        <mxCell id="A40msvk8LjU9jSHHNNsG-6" value="" style="shape=image;html=1;verticalAlign=top;verticalLabelPosition=bottom;labelBackgroundColor=#ffffff;imageAspect=0;aspect=fixed;image=https://cdn1.iconfinder.com/data/icons/ionicons-outline-vol-2/512/menu-outline-128.png" vertex="1" parent="1">
          <mxGeometry x="240" y="639.31" width="20" height="20" as="geometry" />
        </mxCell>
        <mxCell id="A40msvk8LjU9jSHHNNsG-7" value="" style="html=1;verticalLabelPosition=bottom;labelBackgroundColor=#ffffff;verticalAlign=top;shadow=0;dashed=0;strokeWidth=2;shape=mxgraph.ios7.misc.down;strokeColor=#000000;direction=west;" vertex="1" parent="1">
          <mxGeometry x="249" y="612.38" width="12" height="6" as="geometry" />
        </mxCell>
        <mxCell id="A40msvk8LjU9jSHHNNsG-8" value="Direction 1" style="text;html=1;strokeColor=none;fillColor=none;align=left;verticalAlign=middle;whiteSpace=wrap;rounded=0;fontColor=#000000;spacingLeft=2;" vertex="1" parent="1">
          <mxGeometry x="79.5" y="639.31" width="160.5" height="20" as="geometry" />
        </mxCell>
        <mxCell id="A40msvk8LjU9jSHHNNsG-9" value="" style="rounded=0;whiteSpace=wrap;html=1;fillColor=none;" vertex="1" parent="1">
          <mxGeometry x="50" y="160" width="220" height="320" as="geometry" />
        </mxCell>
        <mxCell id="A40msvk8LjU9jSHHNNsG-10" value="" style="rounded=0;whiteSpace=wrap;html=1;" vertex="1" parent="1">
          <mxGeometry x="40" y="80" width="240" height="30" as="geometry" />
        </mxCell>
        <mxCell id="A40msvk8LjU9jSHHNNsG-11" value="" style="endArrow=none;html=1;rounded=0;strokeWidth=1;" edge="1" parent="1">
          <mxGeometry width="50" height="50" relative="1" as="geometry">
            <mxPoint x="250" y="70" as="sourcePoint" />
            <mxPoint x="270" y="50" as="targetPoint" />
          </mxGeometry>
        </mxCell>
        <mxCell id="A40msvk8LjU9jSHHNNsG-12" value="" style="endArrow=none;html=1;rounded=0;strokeWidth=1;" edge="1" parent="1">
          <mxGeometry width="50" height="50" relative="1" as="geometry">
            <mxPoint x="270" y="70" as="sourcePoint" />
            <mxPoint x="250" y="50" as="targetPoint" />
          </mxGeometry>
        </mxCell>
        <mxCell id="A40msvk8LjU9jSHHNNsG-13" value="R" style="text;html=1;strokeColor=none;fillColor=none;align=center;verticalAlign=middle;whiteSpace=wrap;rounded=0;fontStyle=0;fontSize=20;fontColor=#808080;" vertex="1" parent="1">
          <mxGeometry x="40" y="80" width="60" height="30" as="geometry" />
        </mxCell>
        <mxCell id="A40msvk8LjU9jSHHNNsG-14" value="P" style="text;html=1;strokeColor=none;fillColor=none;align=center;verticalAlign=middle;whiteSpace=wrap;rounded=0;fontStyle=0;fontSize=20;fontColor=#808080;" vertex="1" parent="1">
          <mxGeometry x="100" y="80" width="60" height="30" as="geometry" />
        </mxCell>
        <mxCell id="A40msvk8LjU9jSHHNNsG-15" value="D" style="text;html=1;strokeColor=none;fillColor=none;align=center;verticalAlign=middle;whiteSpace=wrap;rounded=0;fontStyle=0;fontSize=20;fontColor=#808080;" vertex="1" parent="1">
          <mxGeometry x="160" y="80" width="60" height="30" as="geometry" />
        </mxCell>
        <mxCell id="A40msvk8LjU9jSHHNNsG-16" value="" style="endArrow=none;html=1;rounded=0;" edge="1" parent="1">
          <mxGeometry width="50" height="50" relative="1" as="geometry">
            <mxPoint x="240" y="219" as="sourcePoint" />
            <mxPoint x="80.5" y="219.31" as="targetPoint" />
          </mxGeometry>
        </mxCell>
        <mxCell id="A40msvk8LjU9jSHHNNsG-17" value="Data is stored in your Solid Pod." style="text;html=1;strokeColor=default;fillColor=none;align=left;verticalAlign=middle;whiteSpace=wrap;rounded=0;dashed=1;spacingLeft=4;" vertex="1" parent="1">
          <mxGeometry x="50" y="120" width="220" height="30" as="geometry" />
        </mxCell>
        <mxCell id="A40msvk8LjU9jSHHNNsG-18" value="F" style="text;html=1;strokeColor=none;fillColor=none;align=center;verticalAlign=middle;whiteSpace=wrap;rounded=0;fontStyle=1;fontSize=20;fontColor=#000000;" vertex="1" parent="1">
          <mxGeometry x="220" y="80" width="60" height="30" as="geometry" />
        </mxCell>
        <mxCell id="A40msvk8LjU9jSHHNNsG-19" value="" style="ellipse;whiteSpace=wrap;html=1;aspect=fixed;fillColor=#808080;" vertex="1" parent="1">
          <mxGeometry x="59.5" y="199.31" width="20" height="20" as="geometry" />
        </mxCell>
        <mxCell id="A40msvk8LjU9jSHHNNsG-20" value="My Places" style="text;html=1;strokeColor=none;fillColor=none;align=left;verticalAlign=middle;whiteSpace=wrap;rounded=0;spacingLeft=4;dashed=1;" vertex="1" parent="1">
          <mxGeometry x="50" y="160" width="220" height="30" as="geometry" />
        </mxCell>
        <mxCell id="A40msvk8LjU9jSHHNNsG-21" value="" style="shape=image;html=1;verticalAlign=top;verticalLabelPosition=bottom;labelBackgroundColor=#ffffff;imageAspect=0;aspect=fixed;image=https://cdn1.iconfinder.com/data/icons/ionicons-outline-vol-2/512/menu-outline-128.png" vertex="1" parent="1">
          <mxGeometry x="240" y="199.31" width="20" height="20" as="geometry" />
        </mxCell>
        <mxCell id="A40msvk8LjU9jSHHNNsG-22" value="" style="rounded=0;whiteSpace=wrap;html=1;align=left;" vertex="1" parent="1">
          <mxGeometry x="240" y="218.93" width="70" height="80" as="geometry" />
        </mxCell>
        <mxCell id="A40msvk8LjU9jSHHNNsG-23" value="View" style="rounded=0;whiteSpace=wrap;html=1;align=left;spacingLeft=2;fillColor=#FFFFFF;" vertex="1" parent="1">
          <mxGeometry x="240" y="218.93" width="70" height="20" as="geometry" />
        </mxCell>
        <mxCell id="A40msvk8LjU9jSHHNNsG-24" value="Edit" style="rounded=0;whiteSpace=wrap;html=1;align=left;spacingLeft=2;fillColor=#FFFFFF;" vertex="1" parent="1">
          <mxGeometry x="240" y="238.93" width="70" height="20" as="geometry" />
        </mxCell>
        <mxCell id="A40msvk8LjU9jSHHNNsG-25" value="Append" style="rounded=0;whiteSpace=wrap;html=1;align=left;spacingLeft=2;fillColor=#FFFFFF;" vertex="1" parent="1">
          <mxGeometry x="240" y="258.93" width="70" height="20" as="geometry" />
        </mxCell>
        <mxCell id="A40msvk8LjU9jSHHNNsG-26" value="Delete" style="rounded=0;whiteSpace=wrap;html=1;align=left;spacingLeft=2;fillColor=#FFFFFF;" vertex="1" parent="1">
          <mxGeometry x="240" y="278.93" width="70" height="20" as="geometry" />
        </mxCell>
        <mxCell id="A40msvk8LjU9jSHHNNsG-27" value="" style="endArrow=none;html=1;rounded=0;" edge="1" parent="1">
          <mxGeometry width="50" height="50" relative="1" as="geometry">
            <mxPoint x="240" y="258.81" as="sourcePoint" />
            <mxPoint x="80.5" y="259.12" as="targetPoint" />
          </mxGeometry>
        </mxCell>
        <mxCell id="A40msvk8LjU9jSHHNNsG-28" value="" style="ellipse;whiteSpace=wrap;html=1;aspect=fixed;fillColor=#808080;" vertex="1" parent="1">
          <mxGeometry x="59.5" y="239.12" width="20" height="20" as="geometry" />
        </mxCell>
        <mxCell id="A40msvk8LjU9jSHHNNsG-29" value="" style="endArrow=none;html=1;rounded=0;" edge="1" parent="1">
          <mxGeometry width="50" height="50" relative="1" as="geometry">
            <mxPoint x="240" y="298.62" as="sourcePoint" />
            <mxPoint x="80.5" y="298.93" as="targetPoint" />
          </mxGeometry>
        </mxCell>
        <mxCell id="A40msvk8LjU9jSHHNNsG-30" value="" style="ellipse;whiteSpace=wrap;html=1;aspect=fixed;fillColor=#808080;" vertex="1" parent="1">
          <mxGeometry x="59.5" y="278.93" width="20" height="20" as="geometry" />
        </mxCell>
        <mxCell id="A40msvk8LjU9jSHHNNsG-31" value="" style="html=1;verticalLabelPosition=bottom;labelBackgroundColor=#ffffff;verticalAlign=top;shadow=0;dashed=0;strokeWidth=2;shape=mxgraph.ios7.misc.down;strokeColor=#000000;direction=west;" vertex="1" parent="1">
          <mxGeometry x="249" y="172" width="12" height="6" as="geometry" />
        </mxCell>
        <mxCell id="A40msvk8LjU9jSHHNNsG-32" value="" style="html=1;verticalLabelPosition=bottom;labelBackgroundColor=#ffffff;verticalAlign=top;shadow=0;dashed=0;strokeWidth=2;shape=mxgraph.ios7.misc.down;strokeColor=#000000;" vertex="1" parent="1">
          <mxGeometry x="63.5" y="332" width="12" height="6" as="geometry" />
        </mxCell>
        <mxCell id="A40msvk8LjU9jSHHNNsG-33" value="Create custom place" style="text;html=1;strokeColor=none;fillColor=none;align=left;verticalAlign=middle;whiteSpace=wrap;rounded=0;" vertex="1" parent="1">
          <mxGeometry x="90" y="320" width="170" height="30" as="geometry" />
        </mxCell>
        <mxCell id="A40msvk8LjU9jSHHNNsG-34" value="" style="endArrow=none;html=1;rounded=0;" edge="1" parent="1">
          <mxGeometry width="50" height="50" relative="1" as="geometry">
            <mxPoint x="260" y="380" as="sourcePoint" />
            <mxPoint x="80.5" y="380" as="targetPoint" />
          </mxGeometry>
        </mxCell>
        <mxCell id="A40msvk8LjU9jSHHNNsG-35" value="" style="ellipse;whiteSpace=wrap;html=1;aspect=fixed;fillColor=#808080;" vertex="1" parent="1">
          <mxGeometry x="59.5" y="360" width="20" height="20" as="geometry" />
        </mxCell>
        <mxCell id="A40msvk8LjU9jSHHNNsG-39" value="Select location..." style="text;html=1;strokeColor=none;fillColor=none;align=left;verticalAlign=middle;whiteSpace=wrap;rounded=0;fontColor=#808080;spacingLeft=2;" vertex="1" parent="1">
          <mxGeometry x="79.5" y="360" width="150.5" height="20" as="geometry" />
        </mxCell>
        <mxCell id="A40msvk8LjU9jSHHNNsG-40" value="Name" style="text;html=1;strokeColor=none;fillColor=none;align=left;verticalAlign=middle;whiteSpace=wrap;rounded=0;" vertex="1" parent="1">
          <mxGeometry x="59.5" y="400" width="40.5" height="20" as="geometry" />
        </mxCell>
        <mxCell id="A40msvk8LjU9jSHHNNsG-41" value="" style="rounded=1;whiteSpace=wrap;html=1;" vertex="1" parent="1">
          <mxGeometry x="110" y="400" width="150" height="20" as="geometry" />
        </mxCell>
        <mxCell id="A40msvk8LjU9jSHHNNsG-42" value="Clear" style="rounded=1;whiteSpace=wrap;html=1;fillColor=#E6E6E6;" vertex="1" parent="1">
          <mxGeometry x="79.5" y="440" width="60" height="20" as="geometry" />
        </mxCell>
        <mxCell id="A40msvk8LjU9jSHHNNsG-43" value="Place 1" style="text;html=1;strokeColor=none;fillColor=none;align=left;verticalAlign=middle;whiteSpace=wrap;rounded=0;fontColor=#000000;spacingLeft=2;" vertex="1" parent="1">
          <mxGeometry x="79.5" y="199.31" width="160.5" height="20" as="geometry" />
        </mxCell>
        <mxCell id="A40msvk8LjU9jSHHNNsG-44" value="Place 2" style="text;html=1;strokeColor=none;fillColor=none;align=left;verticalAlign=middle;whiteSpace=wrap;rounded=0;fontColor=#000000;spacingLeft=2;" vertex="1" parent="1">
          <mxGeometry x="79.5" y="239.12" width="160.5" height="20" as="geometry" />
        </mxCell>
        <mxCell id="A40msvk8LjU9jSHHNNsG-45" value="Place 3" style="text;html=1;strokeColor=none;fillColor=none;align=left;verticalAlign=middle;whiteSpace=wrap;rounded=0;fontColor=#000000;spacingLeft=2;" vertex="1" parent="1">
          <mxGeometry x="79.5" y="278.93" width="160.5" height="20" as="geometry" />
        </mxCell>
        <mxCell id="A40msvk8LjU9jSHHNNsG-46" value="Create" style="rounded=1;whiteSpace=wrap;html=1;fillColor=#E6E6E6;" vertex="1" parent="1">
          <mxGeometry x="180" y="440" width="60" height="20" as="geometry" />
        </mxCell>
        <mxCell id="A40msvk8LjU9jSHHNNsG-47" value="" style="rounded=0;whiteSpace=wrap;html=1;fillColor=none;" vertex="1" parent="1">
          <mxGeometry x="50" y="500" width="220" height="80" as="geometry" />
        </mxCell>
        <mxCell id="A40msvk8LjU9jSHHNNsG-48" value="" style="endArrow=none;html=1;rounded=0;" edge="1" parent="1">
          <mxGeometry width="50" height="50" relative="1" as="geometry">
            <mxPoint x="239.5" y="559.31" as="sourcePoint" />
            <mxPoint x="80" y="559.6199999999999" as="targetPoint" />
          </mxGeometry>
        </mxCell>
        <mxCell id="A40msvk8LjU9jSHHNNsG-49" value="" style="ellipse;whiteSpace=wrap;html=1;aspect=fixed;fillColor=#808080;" vertex="1" parent="1">
          <mxGeometry x="59.5" y="539.31" width="20" height="20" as="geometry" />
        </mxCell>
        <mxCell id="A40msvk8LjU9jSHHNNsG-50" value="My Routes" style="text;html=1;strokeColor=none;fillColor=none;align=left;verticalAlign=middle;whiteSpace=wrap;rounded=0;spacingLeft=4;dashed=1;" vertex="1" parent="1">
          <mxGeometry x="50" y="500" width="220" height="30" as="geometry" />
        </mxCell>
        <mxCell id="A40msvk8LjU9jSHHNNsG-51" value="" style="shape=image;html=1;verticalAlign=top;verticalLabelPosition=bottom;labelBackgroundColor=#ffffff;imageAspect=0;aspect=fixed;image=https://cdn1.iconfinder.com/data/icons/ionicons-outline-vol-2/512/menu-outline-128.png" vertex="1" parent="1">
          <mxGeometry x="240" y="539.31" width="20" height="20" as="geometry" />
        </mxCell>
        <mxCell id="A40msvk8LjU9jSHHNNsG-52" value="" style="rounded=0;whiteSpace=wrap;html=1;align=left;" vertex="1" parent="1">
          <mxGeometry x="240" y="559.3100000000001" width="70" height="80" as="geometry" />
        </mxCell>
        <mxCell id="A40msvk8LjU9jSHHNNsG-53" value="View" style="rounded=0;whiteSpace=wrap;html=1;align=left;spacingLeft=2;fillColor=#FFFFFF;" vertex="1" parent="1">
          <mxGeometry x="240" y="559.3100000000001" width="70" height="20" as="geometry" />
        </mxCell>
        <mxCell id="A40msvk8LjU9jSHHNNsG-54" value="Edit" style="rounded=0;whiteSpace=wrap;html=1;align=left;spacingLeft=2;fillColor=#FFFFFF;" vertex="1" parent="1">
          <mxGeometry x="240" y="579.3100000000001" width="70" height="20" as="geometry" />
        </mxCell>
        <mxCell id="A40msvk8LjU9jSHHNNsG-55" value="Modify" style="rounded=0;whiteSpace=wrap;html=1;align=left;spacingLeft=2;fillColor=#FFFFFF;" vertex="1" parent="1">
          <mxGeometry x="240" y="599.3100000000001" width="70" height="20" as="geometry" />
        </mxCell>
        <mxCell id="A40msvk8LjU9jSHHNNsG-56" value="Delete" style="rounded=0;whiteSpace=wrap;html=1;align=left;spacingLeft=2;fillColor=#FFFFFF;" vertex="1" parent="1">
          <mxGeometry x="240" y="619.3100000000001" width="70" height="20" as="geometry" />
        </mxCell>
        <mxCell id="A40msvk8LjU9jSHHNNsG-57" value="" style="html=1;verticalLabelPosition=bottom;labelBackgroundColor=#ffffff;verticalAlign=top;shadow=0;dashed=0;strokeWidth=2;shape=mxgraph.ios7.misc.down;strokeColor=#000000;direction=west;" vertex="1" parent="1">
          <mxGeometry x="249" y="512" width="12" height="6" as="geometry" />
        </mxCell>
        <mxCell id="A40msvk8LjU9jSHHNNsG-58" value="Route 1" style="text;html=1;strokeColor=none;fillColor=none;align=left;verticalAlign=middle;whiteSpace=wrap;rounded=0;fontColor=#000000;spacingLeft=2;" vertex="1" parent="1">
          <mxGeometry x="79.5" y="539.31" width="160.5" height="20" as="geometry" />
        </mxCell>
      </root>
    </mxGraphModel>
  </diagram>
</mxfile>
